<svg xmlns="http://www.w3.org/2000/svg" fill="none" viewBox="0 0 24 24">

    <!--    Common-->
    <g id="star">
        <g clip-path="url(#a)">
            <path stroke="#000"
                  d="m12 1.44 2.772 7.492.08.216.216.08L22.559 12l-7.491 2.772-.216.08-.08.216L12 22.559l-2.772-7.491-.08-.216-.216-.08L1.441 12l7.491-2.772.216-.08.08-.216L12 1.441Z"/>
        </g>
        <defs>
            <clipPath id="a">
                <path fill="#fff" d="M0 0h24v24H0z"/>
            </clipPath>
        </defs>
    </g>
    <g id="arrowLeft">
        <path fill="#000" d="M7.825 13H20v-2H7.825l5.6-5.6L12 4l-8 8 8 8 1.425-1.4-5.6-5.6Z"/>
    </g>

    <g id="arrowRight">
        <path fill="#000" d="M16.175 13H4v-2h12.175l-5.6-5.6L12 4l8 8-8 8-1.425-1.4 5.6-5.6Z"/>
    </g>

    <g id="kitty">
        <g clip-path="url(#a)">
            <path fill="#000"
                  d="M22.69 13.664c-.52-.682-1.108-1.312-1.588-2.027a7.734 7.734 0 0 1-1.037-2.24c-.238-.853-.307-1.72-.285-2.605.01-.463.043-.926.072-1.39.015-.233.03-.462.04-.696.01-.207.058-.456-.01-.656-.106-.31-.47-.351-.752-.33-.386.034-.733.234-1.011.5-.13.127-.242.268-.35.412-.087.119-.167.308-.308.36-.148.051-.422-.023-.574-.052a3.276 3.276 0 0 1-.646-.2 3.11 3.11 0 0 1-.947-.652c-.252-.256-.465-.545-.754-.76-.242-.181-.593-.37-.885-.196-.293.174-.282.552-.271.852.01.392.058.785.076 1.178.007.13.036.3.003.43 0 .003 0 .007-.003.01a.298.298 0 0 0-.062.064c-.075.089-.122.244-.166.352a3.543 3.543 0 0 0-.137 2.245c.134.5.38.978.704 1.381-.585.412-.986.956-1.372 1.549-.043-.69-.033-1.393-.31-2.034-.214-.496-.535-.94-.824-1.39-.325-.503-.654-1.003-.972-1.507a1.19 1.19 0 0 1-.21-.722c.008-.278.048-.545.008-.823-.061-.444-.44-.874-.397-1.322.047-.47.397-.9.108-1.371a.649.649 0 0 0-.47-.3c-.028-.282-.14-.548-.415-.663a.62.62 0 0 0-.549.04C8.241.92 8.028.817 7.786.95c-.227.126-.292.422-.31.722-.188-.026-.376.056-.474.311-.151.382.228.982.43 1.278.369.534.423 1.186.535 1.82.122.703.216 1.414.227 2.133.007.704-.068 1.404-.13 2.1-.05.582-.09 1.171-.159 1.753-.086.726-.198 1.578-.57 2.208-.206.356-.629.645-.972.774-.321.123-.668.241-.751.6h-.007c-1.022.234-2.023.634-2.9 1.22-.921.614-1.712 1.448-2.146 2.492-.263.634-.393 1.327-.484 2.008-.072.53-.112 1.067-.028 1.597.083.534.386 1.145.99 1.145.4 0 .772-.267.837-.682.054-.348.029-.711.036-1.063.01-.482.047-.967.18-1.434.13-.455.369-.885.76-1.152.497-.34 1.133-.467 1.722-.493.773-.033 1.546.074 2.297.248.4.093.798.204 1.188.334.307.1.607.23.924.296 1.279.263 2.637-.007 3.905-.218 1.329-.223 2.629-.452 3.98-.341 1.386.115 2.77.27 4.15.444.35.045.7.123 1.05.141.744.041 1.336-.278 1.654-.978.715-1.585-.054-3.264-1.03-4.55Zm-3.275-9.325c-.007-.007-.014-.014-.021-.026.014.008.021.015.021.026Z"/>
        </g>
        <defs>
            <clipPath id="a">
                <path fill="#fff" d="M0 0h24v24H0z"/>
            </clipPath>
        </defs>
    </g>

    <g id="spirito">
        <path fill="#000" d="M32.94 24.725c-.303-.23-.58-.424-.976-.295-.35.11-.7.36-1.014.553-.7.415-1.373.875-2.018 1.355-.516.387-.967.93-1.419 1.382l-.313.313v-.295c0-.322.009-.645.064-.958.028-.138.056-.267.102-.405.129-.139.267-.268.396-.406.074-.074.23-.323.313-.35-.295.101-.497.313-.728.525-.608.58-1.198 1.17-1.77 1.779-.432.46-.607.93-.653 1.557-.093 1.327-.056 2.682-.037 4.018-.913-.221-1.843-.323-2.783-.369a5.579 5.579 0 0 0-.019-1.566c-.285-1.77-1.446-3.226-2.635-4.507-1.41-1.52-2.875-2.985-4.313-4.478-.691-.719-1.539-1.447-1.585-2.516a2.798 2.798 0 0 1 .286-1.309c.101-.211.22-.423.35-.617.046-.074.101-.138.157-.212l.147-.147.184-.185a.27.27 0 0 0-.018.093c0-.019.212-.203.304-.286.304-.12.673-.157.977-.221.451-.083.903-.157 1.355-.203.746-.074 1.566-.148 2.285.138 1.77.7 1.253 2.83.719 4.184.027-.065.34-.304.35-.313.276-.268.544-.535.81-.802.268-.267.535-.535.803-.811.092-.101.267-.221.313-.35.368-.94.737-1.982.396-2.986-.313-.912-1.133-1.327-2.046-1.382-1.004-.065-2.064.11-3.04.322-.24.056-.554.083-.775.203-.258.129-.479.405-.682.599-.424.415-.848.839-1.262 1.263a24.902 24.902 0 0 0-2.912 2.92c-.48.581-.894 1.282-.968 2.056-.083.93.415 1.64 1.032 2.285.7.737 1.41 1.456 2.11 2.193 1.337 1.383 2.784 2.719 3.935 4.258.544.728.996 1.52 1.254 2.377-2.064.056-4.11.323-6 1.226-.967.46-1.86 1.06-2.672 1.75a33.354 33.354 0 0 0-2.35 2.222c-1.216-.811-2.12-2.019-2.294-3.604-.102-.921.027-1.852.258-2.755.11-.424.23-.921.414-1.373.083-.083.176-.166.258-.258.268-.267.535-.535.802-.811.065-.074.24-.323.314-.35-.36.11-.618.313-.894.562-.738.691-1.502 1.41-2.166 2.175-.544.636-.792 1.456-.995 2.248-.498 1.908-.452 3.926.894 5.474.396.452.838.83 1.327 1.134C5.387 42.39 4.64 44.26 4.42 46.233c0-.027.378-.35.35-.313.276-.267.544-.535.811-.802s.534-.534.802-.81c.073-.075.304-.25.313-.351.11-.94.332-1.861.663-2.746 2.572 1.115 5.898.627 8.322-.553a7.599 7.599 0 0 0 1.566-1.041 8.117 8.117 0 0 0 1.162-.959c.027-.027.064-.055.092-.092.23-.175.912-.838 1.299-1.244.46-.47.903-.958 1.272-1.493.064-.092.129-.193.193-.295a11.63 11.63 0 0 1 3.631 1.078l-.028 8.635c-.009 2.018-.009 4.036-.018 6.054 0-.018.387-.359.35-.313.277-.267.544-.534.811-.801.267-.268.535-.535.802-.811.064-.065.313-.268.313-.35.01-3.76.028-7.511.037-11.27.387.165.783.313 1.189.423 1.023.258 2.202.157 3.105-.424.184-.12.35-.258.507-.405-.184.267.166-.065 1.041-1.005.286-.285.572-.571.848-.866.157-.166.313-.322.442-.498a3.76 3.76 0 0 1-.184.627c-.046.12-.101.24-.166.35a2.734 2.734 0 0 1-.129.221c-.046.056-.073.102-.11.148-.056.064-.11.12-.166.184-.056.065-.203.148-.102.13.093-.02.24-.176.36-.314.092-.092.23-.23.396-.415.516-.507 1.032-1.014 1.52-1.548.194-.212.378-.442.517-.691.313-.58.442-1.244.451-1.908.019-1.354-.424-2.718-1.05-3.898a9.784 9.784 0 0 0-2.691-3.142ZM9.655 37.405c.415-.47.839-.654-.387.46a6.03 6.03 0 0 1 .387-.46Zm9.722-.332a32.12 32.12 0 0 0-.553.562c-.101.102-.258.222-.313.35l-.028.056-.046.046c-.037.037-.083.074-.12.12-.377.203-.764.378-1.16.534-1.43.544-2.996.83-4.525.811-1.318-.018-2.691-.387-3.816-1.069.111-.156.222-.304.332-.451l.028-.028c.295-.23.599-.451.912-.645.922-.59 1.917-1.05 2.968-1.364 1.271-.378 2.598-.497 3.925-.544a32.79 32.79 0 0 1 2.857 0 6.215 6.215 0 0 1-.46 1.622Zm15.002-2.617c-.258.249-.516.507-.774.756-.202.202-.414.414-.617.626a4.567 4.567 0 0 1-.783.175c-1.17.148-2.277-.267-3.318-.783-.58-.285-1.142-.59-1.714-.875l.01-4.046c0-.7 0-1.391.009-2.091.479-.341.967-.655 1.465-.959.553-.332 1.143-.83 1.778-.424 1.05.673 1.926 1.714 2.58 2.765.646 1.041 1.125 2.23 1.31 3.446.073.47.1.94.054 1.41Zm9.317.48a9.456 9.456 0 0 1-.627.737 1.116 1.116 0 0 1-.156.165c-.387.406-.802.793-1.198 1.19-.406.395-.867.985-1.456 1.105-1.355.276-1.161-1.548-1.198-2.368-.13-2.682-.258-5.373-.387-8.054 0-.083.258-.286.313-.35.267-.277.535-.544.802-.812.267-.267.534-.534.81-.801-.045.037.35-.304.35-.314.111 2.23.213 4.46.323 6.7l.083 1.723c.019.452-.009.959.12 1.4.12.406.452.655.876.637.175-.01.322-.065.479-.13l.037-.036c.23-.221.451-.452.69-.673-.045.028.25-.276.139-.12Zm-4.718-10.47a67.01 67.01 0 0 1-.811.803c-.074.064-.286.22-.35.313.792-1.152.608-2.69.599-4.018 0-.083.258-.285.313-.35.267-.276.535-.544.802-.811s.534-.534.81-.802c-.036.037.35-.304.35-.313 0 1.327.185 2.866-.598 4.018-.295.433-.747.792-1.115 1.16Zm13.546 8.921c-.276.71-.617 1.217-1.143 1.76a64.765 64.765 0 0 1-1.594 1.595c-.23.22-.46.442-.755.58-1.401.627-1.99-1.345-2.102-2.359-.156-1.474-.009-3.013.176-4.479.175-1.327.442-2.635.801-3.916a7.969 7.969 0 0 1-.58.534c-.212.175-.433.332-.71.406-.608.175-1.124-.138-1.41-.664-.129-.22-.203-.47-.267-.718a.54.54 0 0 1-.018-.12c-.157.157-.314.304-.47.451-.028.028-.314.24-.35.314.35-.72 1.032-1.263 1.584-1.825.268-.267.544-.553.82-.82.074-.074.13-.13.157-.138.083-.074.157-.148.25-.212.036-.028.23-.203.266-.194.019.01.056.286.065.314.11.451.322.94.728 1.197.221.139.479.203.737.166.028 0 .046-.009.074-.009.138-.138.276-.276.405-.415.268-.267.535-.534.811-.801 0 0 .102-.074.194-.157l.156-.156a27.454 27.454 0 0 0-1.18 7.012c-.036 1.05-.073 2.175.314 3.17.166.424.424.903.848 1.115.12.065.249.102.378.11.212-.211.424-.432.636-.644.267-.267.534-.535.81-.802.028.018.35-.23.37-.295Zm7.197.028c-.212.792-.977 1.364-1.53 1.917-.525.525-1.105 1.308-1.843 1.538-.534.166-1.124.01-1.538-.368-.489-.442-.563-1.124-.655-1.742a37.409 37.409 0 0 1-.267-9.077c.01-.092.249-.276.313-.35.267-.276.535-.544.802-.81.267-.268.534-.535.81-.802-.036.027.351-.295.351-.314a37.56 37.56 0 0 0 .037 7.197c.064.6.138 1.198.221 1.788.074.516.13 1.078.415 1.52a1.608 1.608 0 0 0 1.63.71c.029-.028.056-.065.093-.092.267-.267.535-.535.811-.802-.01.019.34-.267.35-.313Zm-5.603-9.851c.58-.959.268-2.175-.027-3.189-.019-.055.267-.304.313-.35.267-.276.535-.543.802-.81.267-.268.534-.535.81-.802-.055.046.35-.314.35-.314.286.977.581 2.055.12 3.023-.257.544-.746.949-1.151 1.364-.562.571-1.115 1.216-1.779 1.686.11-.083.221-.249.313-.35.084-.101.166-.175.25-.258Zm24.347-16.91c-.175.083-.415.387-.535.507-.22.221-.451.442-.672.663-.13.11-.258.221-.387.323-.36.295-.738.562-1.125.82-.672.442-1.373.839-2.092 1.189-1.483.718-3.059 1.235-4.662 1.603-2.23.516-4.507.719-6.792.774 0-.249 0-.507.01-.755.027-2.59.055-5.189.091-7.778 0 .018-.387.36-.35.313a67.01 67.01 0 0 0-.81.802c-.268.267-.535.535-.802.811-.065.064-.314.267-.314.35-.027 2.092-.055 4.184-.074 6.276-.755-.01-1.502-.028-2.248-.046-3.935-.111-7.86-.25-11.795-.019-3.908.23-7.815.747-11.62 1.687-3.963.976-7.926 2.359-11.262 4.764-.424.304-.792.746-1.16 1.115-.268.267-.535.534-.802.81-.102.102-.203.268-.314.351 3.124-2.249 6.792-3.603 10.496-4.57 3.963-1.042 8.036-1.613 12.118-1.862 4.175-.258 8.33-.092 12.505.018a74.67 74.67 0 0 0 4.064.019 779.904 779.904 0 0 0-.028 6.56c0 2.498.019 5.005.065 7.502.018 1.253.055 2.497.083 3.75.028.904-.046 1.917.36 2.756.423.894 1.363 1.05 2.128.46.82-.635 1.539-1.455 2.258-2.202a7.282 7.282 0 0 0 1.032-1.336c-.055.092-.295.267-.35.313-.277.268-.544.535-.811.802-.157.157-.341.323-.525.489a1.245 1.245 0 0 1-.775-.074c-.663-.314-.875-1.134-.958-1.797-.12-1.005-.092-2.046-.11-3.05-.028-1.125-.047-2.258-.065-3.382-.055-3.631-.055-7.262-.037-10.893 1.815-.138 3.622-.405 5.382-.875 1.843-.498 3.64-1.207 5.27-2.193 2.111-1.272 3.862-3.06 5.52-4.857.02-.037.213-.203.093-.138ZM63.646 34.428l-.11.166c-.13.222-.268.424-.415.627-.443.608-1.097.498.525-.792Zm7.17-15.536c-.093-.037-.637.543-.95.884-.221.203-.433.415-.645.627-.46.46-.977.903-1.382 1.42-1.742 2.192-1.954 5.289-1.963 7.989-.01 1.364.451 2.515 1.53 3.363.801.627 1.76 1.014 2.746 1.281-.148.148-.295.295-.424.452-.019.018-.221.23-.102.129.222-.185.434-.36.645-.553.185.046.378.092.572.129.046.009.378-.341.35-.313.276-.268.544-.535.811-.802s.534-.535.802-.811c.037-.037.295-.36.313-.35a7.953 7.953 0 0 1-.451-.102c.34-.35.672-.7 1.004-1.05.848-.903 1.548-1.899 1.907-3.096.692-2.249.25-4.848-1.244-6.681-.921-1.134-2.184-1.945-3.52-2.516Zm1.953 13.131c-.074.065-.148.12-.212.185-.019-.01-.037-.01-.055-.019.894-1.013.71-.562.267-.166Zm.414-1.271a6.558 6.558 0 0 1-.737 1.428c-.949-.249-1.87-.617-2.663-1.207-1.087-.811-1.612-1.926-1.63-3.272a23.65 23.65 0 0 1 .34-4.266c.12-.691.295-1.383.553-2.037 2.294 1.125 4.073 3.014 4.488 5.64a7.48 7.48 0 0 1-.35 3.714Z"/>
    </g>

    <!--    Skills-->
    <g id="figma">
        <path fill="#000"
              d="M15.305 8.666a3.334 3.334 0 0 0 0-6.666H8.638a3.334 3.334 0 0 0 0 6.666 3.334 3.334 0 0 0 0 6.667 3.334 3.334 0 0 0 0 6.667 3.335 3.335 0 0 0 3.334-3.334v-10h3.333Z"/>
        <path fill="#000" d="M15.305 15.332a3.333 3.333 0 1 0 0-6.666 3.333 3.333 0 0 0 0 6.666Z"/>
    </g>

    <g id="html">
        <path fill="#000"
              d="m4.063 3 1.428 16.152L12 21l6.481-1.848L19.938 3H4.063Zm12.873 3.831-.104 1.022-.037.422H9.193l.177 2.037h7.25l-.071.526-.46 5.24-.036.35-4.046 1.117v.006h-.025l-.007.003v-.003h-.002l-4.08-1.125-.247-3.128h1.97l.141 1.584 2.216.599h.008l2.207-.597.247-2.566h-2.46v-.002H7.542L7.05 6.83l-.037-.525h9.958l-.034.525Z"/>
    </g>

    <g id="css">
        <path fill="#000"
              d="M4.125 3h15.75l-1.433 16.172L11.983 21 5.56 19.171 4.125 3Zm12.818 3.31-9.885-.003.16 1.966 7.593.002-.19 2.037H9.64l.18 1.93h4.636l-.274 2.643-2.183.603-2.216-.608-.142-1.583H7.685l.218 2.892L12 17.465l4.03-1.147.913-10.009Z"/>
    </g>

    <g id="react">
        <path fill="#000"
              d="M22 12.002c0-1.325-1.66-2.58-4.203-3.36.587-2.592.326-4.655-.824-5.316a1.787 1.787 0 0 0-.913-.227v.908c.188 0 .338.038.465.107.554.318.795 1.528.608 3.086-.046.383-.119.786-.209 1.198a19.755 19.755 0 0 0-2.588-.444 19.883 19.883 0 0 0-1.696-2.039c1.33-1.235 2.577-1.911 3.425-1.911v-.91c-1.122 0-2.59.8-4.073 2.186C10.508 3.903 9.04 3.11 7.919 3.11v.909c.844 0 2.096.673 3.425 1.9-.57.6-1.141 1.28-1.684 2.034-.873.09-1.74.239-2.593.448a12.236 12.236 0 0 1-.212-1.182c-.192-1.558.045-2.768.596-3.09a.904.904 0 0 1 .468-.106v-.909c-.341 0-.652.074-.92.228-1.146.66-1.403 2.719-.812 5.304C3.65 9.43 2 10.681 2 12.002c0 1.325 1.66 2.58 4.203 3.358-.587 2.594-.326 4.657.824 5.317.265.155.575.228.916.228 1.122 0 2.59-.799 4.074-2.185 1.483 1.378 2.95 2.169 4.072 2.169.322.006.64-.072.921-.229 1.146-.66 1.402-2.718.812-5.303C20.349 14.579 22 13.323 22 12.002Zm-5.308-2.72a18.381 18.381 0 0 1-.55 1.61A22.024 22.024 0 0 0 15.02 8.96c.579.086 1.137.192 1.671.323Zm-1.867 4.342c-.317.55-.644 1.073-.982 1.558-1.224.108-2.454.11-3.677.004a21.211 21.211 0 0 1-1.834-3.171 21.724 21.724 0 0 1 1.826-3.184 21.213 21.213 0 0 1 3.676-.005c.338.485.67 1.004.987 1.55.31.534.591 1.075.848 1.622-.26.553-.541 1.096-.844 1.627Zm1.317-.53c.22.546.408 1.093.562 1.623-.533.13-1.097.24-1.679.326.404-.63.777-1.28 1.117-1.948Zm-4.134 4.35c-.379-.391-.758-.827-1.133-1.304.367.016.742.029 1.12.029a20.2 20.2 0 0 0 1.134-.03c-.367.478-.746.914-1.12 1.306Zm-3.033-2.401a18.429 18.429 0 0 1-1.672-.322c.151-.526.339-1.068.55-1.61.168.325.344.652.535.978.192.326.387.645.587.954Zm3.013-8.483c.379.391.758.827 1.133 1.305-.367-.017-.742-.03-1.121-.03-.383 0-.762.009-1.133.03.366-.478.745-.914 1.12-1.305ZM8.97 8.96c-.404.63-.777 1.278-1.117 1.944a17.467 17.467 0 0 1-.562-1.622A19.422 19.422 0 0 1 8.97 8.96Zm-3.69 5.104c-1.443-.615-2.376-1.423-2.376-2.063 0-.64.933-1.452 2.377-2.062.35-.151.733-.286 1.129-.412.232.798.538 1.63.917 2.482-.358.802-.66 1.627-.905 2.47-.387-.12-.768-.258-1.141-.415Zm2.194 5.825c-.554-.317-.795-1.529-.607-3.085.044-.384.118-.788.208-1.2.798.196 1.67.347 2.588.445.52.717 1.086 1.398 1.696 2.039C10.03 19.324 8.783 20 7.935 20a.974.974 0 0 1-.46-.11Zm9.67-3.106c.192 1.557-.045 2.768-.596 3.09a.905.905 0 0 1-.468.106c-.844 0-2.096-.673-3.425-1.9a19.16 19.16 0 0 0 1.684-2.034c.873-.09 1.74-.24 2.593-.448.094.411.166.806.212 1.186Zm1.57-2.72c-.35.151-.734.286-1.13.412a19.563 19.563 0 0 0-.917-2.482c.375-.848.676-1.675.905-2.47.404.126.786.265 1.145.416 1.444.615 2.377 1.422 2.377 2.062-.004.64-.938 1.452-2.38 2.063Z"/>
        <path fill="#000" d="M11.996 13.865a1.863 1.863 0 1 0 0-3.726 1.863 1.863 0 0 0 0 3.726Z"/>
    </g>

    <g id="sass">
        <path fill="#000"
              d="M11.318 16.608c-.022.04-.011.023 0 0Zm9.341-3.262c-.754 0-1.498.172-2.175.506-.22-.446-.45-.836-.487-1.129-.045-.34-.094-.543-.041-.948.052-.405.288-.979.285-1.02-.004-.041-.053-.248-.537-.251-.483-.004-.9.094-.948.221a4.566 4.566 0 0 0-.199.716c-.086.439-.966 2.006-1.465 2.824-.165-.32-.304-.6-.334-.825-.045-.341-.094-.544-.041-.949.052-.405.288-.979.285-1.02-.004-.041-.053-.247-.536-.251-.483-.004-.9.094-.948.221-.05.128-.102.428-.2.716-.096.29-1.27 2.899-1.577 3.578-.157.345-.292.622-.39.81-.015.03-.026.048-.034.063.012-.019.02-.037.02-.03-.083.161-.132.251-.132.251v.004c-.064.12-.135.229-.169.229-.022 0-.071-.315.011-.746.177-.908.593-2.318.59-2.366-.005-.027.078-.27-.275-.401-.34-.124-.465.082-.495.082-.03 0-.052.075-.052.075s.379-1.59-.727-1.59c-.69 0-1.65.758-2.122 1.444-.296.16-.937.51-1.612.88l-.777.428-.052-.056c-1.342-1.432-3.82-2.445-3.715-4.368.037-.701.281-2.542 4.765-4.777 3.674-1.83 6.612-1.328 7.118-.21.728 1.593-1.57 4.56-5.387 4.987-1.454.161-2.219-.402-2.41-.611-.199-.222-.229-.233-.304-.192-.123.068-.045.263 0 .38.113.295.582.82 1.38 1.083.701.228 2.407.356 4.468-.443 2.317-.892 4.12-3.378 3.591-5.46-.538-2.114-4.045-2.808-7.36-1.63-1.977.7-4.113 1.803-5.65 3.24C.195 8.52-.096 10.008.024 10.63c.427 2.209 3.47 3.649 4.689 4.713l-.169.094c-.611.304-2.931 1.519-3.513 2.801-.656 1.455.11 2.497.61 2.64 1.568.435 3.172-.349 4.035-1.635.862-1.286.757-2.966.36-3.73-.004-.012-.012-.02-.015-.03.45-.267.903-.527 1.36-.78-.15.404-.258.892-.314 1.597-.068.825.274 1.893.716 2.313.195.184.43.188.577.188.518 0 .75-.428 1.01-.938.318-.622.599-1.346.599-1.346s-.352 1.957.611 1.957c.353 0 .705-.453.863-.686v.004s.007-.015.026-.045c.037-.056.056-.09.056-.09v-.011c.143-.244.454-.803.922-1.725.608-1.192 1.188-2.681 1.188-2.681.057.327.135.65.233.967.105.357.326.747.502 1.125-.142.195-.228.308-.228.308 0 .003.001.005.003.007-.112.15-.24.312-.37.469-.48.57-1.05 1.222-1.126 1.41-.09.221-.067.386.105.514.128.097.353.112.589.093a2.6 2.6 0 0 0 .881-.202c.27-.097.525-.23.758-.398.468-.345.753-.84.727-1.492-.015-.36-.131-.72-.274-1.057.041-.06.086-.124.128-.188.488-.728.927-1.487 1.316-2.273.056.327.133.65.232.968.09.303.267.637.428.963-.698.566-1.129 1.223-1.278 1.654-.278.798-.06 1.158.349 1.24.183.038.446-.048.64-.13.29-.097.563-.237.81-.417.469-.345.922-.828.892-1.484a2.79 2.79 0 0 0-.203-.878c.589-.247 1.354-.382 2.329-.27 2.088.244 2.496 1.549 2.417 2.092-.078.544-.517.848-.663.938-.146.09-.192.124-.18.191.018.098.086.094.21.071.172-.03 1.095-.442 1.136-1.45.06-1.276-1.166-2.678-3.337-2.667l-.002.001ZM4.567 18.772c-.69.753-1.657 1.038-2.073.798-.446-.26-.27-1.368.58-2.171.518-.488 1.185-.938 1.628-1.215l.427-.259a.608.608 0 0 1 .045-.026c.034-.023.071-.041.109-.064.31 1.14.011 2.145-.716 2.936Zm5.038-3.427c-.24.588-.746 2.088-1.054 2.01-.263-.068-.424-1.212-.053-2.337.188-.566.585-1.24.822-1.503.378-.424.794-.559.892-.39.131.221-.457 1.852-.607 2.22Zm4.162 1.987c-.102.052-.195.086-.24.06-.034-.019.04-.09.04-.09s.522-.559.728-.814c.12-.15.26-.326.41-.521 0 .019.003.037.003.06-.005.671-.65 1.125-.942 1.305Zm3.21-.731c-.076-.053-.064-.23.187-.776.097-.214.322-.574.712-.92.044.131.069.268.072.406-.004.843-.608 1.158-.972 1.29Z"/>
    </g>

    <!--    Social-->
    <g id="tg">
        <path fill="#000"
              d="m21.943 5.14-3.018 14.234c-.228 1.004-.822 1.254-1.665.781l-4.6-3.389-2.218 2.135c-.246.246-.451.45-.925.45l.331-4.683 8.523-7.701c.37-.33-.08-.514-.576-.183L7.26 13.419l-4.537-1.42c-.986-.308-1.004-.987.206-1.46l17.743-6.836c.821-.308 1.54.182 1.272 1.437Z"/>
    </g>

    <g id="vk">
        <path fill="#000" fill-rule="evenodd"
              d="M22.495 6.452c.152-.5 0-.869-.728-.869H19.36c-.612 0-.894.319-1.047.67 0 0-1.224 2.93-2.957 4.832-.561.552-.816.727-1.122.727-.153 0-.383-.175-.383-.676V6.452c0-.6-.17-.869-.679-.869H9.388c-.382 0-.612.28-.612.544 0 .57.867.701.956 2.304v3.481c0 .764-.14.902-.446.902-.816 0-2.8-2.943-3.979-6.311-.228-.656-.459-.92-1.074-.92H1.825c-.688 0-.825.319-.825.67 0 .625.816 3.73 3.8 7.838 1.989 2.805 4.789 4.325 7.34 4.325 1.53 0 1.719-.337 1.719-.919v-2.12c0-.676.145-.81.63-.81.357 0 .968.176 2.396 1.528 1.632 1.603 1.9 2.322 2.82 2.322h2.405c.688 0 1.032-.338.835-1.005-.219-.664-.998-1.627-2.03-2.77-.562-.651-1.403-1.352-1.659-1.703-.357-.45-.255-.651 0-1.052 0 0 2.933-4.057 3.238-5.435h.001Z"
              clip-rule="evenodd"/>
    </g>

    <g id="github">
        <path fill="#000"
              d="M12 2.242a10 10 0 0 0-10 10c0 4.42 2.87 8.17 6.84 9.5.5.08.66-.23.66-.5v-1.69c-2.77.6-3.36-1.34-3.36-1.34-.46-1.16-1.11-1.47-1.11-1.47-.91-.62.07-.6.07-.6 1 .07 1.53 1.03 1.53 1.03.87 1.52 2.34 1.07 2.91.83.09-.65.35-1.09.63-1.34-2.22-.25-4.55-1.11-4.55-4.92 0-1.11.38-2 1.03-2.71-.1-.25-.45-1.29.1-2.64 0 0 .84-.27 2.75 1.02.79-.22 1.65-.33 2.5-.33.85 0 1.71.11 2.5.33 1.91-1.29 2.75-1.02 2.75-1.02.55 1.35.2 2.39.1 2.64.65.71 1.03 1.6 1.03 2.71 0 3.82-2.34 4.66-4.57 4.91.36.31.69.92.69 1.85v2.74c0 .27.16.59.67.5 3.97-1.34 6.83-5.08 6.83-9.5a10 10 0 0 0-10-10Z"/>
    </g>
</svg>
