<svg width="64" height="64" viewBox="0 0 64 64" fill="none" xmlns="http://www.w3.org/2000/svg">
<path d="M60.5091 36.4372C59.1223 34.6195 57.5525 32.94 56.2716 31.0334C55.0388 29.2058 54.1047 27.1905 53.5075 25.0566C52.8719 22.7844 52.6889 20.4728 52.7467 18.1117C52.7756 16.8768 52.8623 15.6419 52.9393 14.4071C52.9778 13.7847 53.0164 13.1722 53.0453 12.5498C53.0742 11.9966 53.1994 11.3347 53.0164 10.8012C52.7371 9.97139 51.7644 9.86272 51.0132 9.92199C49.9827 10.0109 49.0581 10.5444 48.3165 11.2557C47.9698 11.5915 47.6713 11.9669 47.3824 12.3522C47.1512 12.6684 46.9393 13.1722 46.5637 13.3105C46.1689 13.4488 45.4369 13.2512 45.0324 13.1722C44.445 13.0536 43.8575 12.8758 43.3085 12.6387C42.3743 12.2238 41.5076 11.6311 40.7853 10.9C40.1111 10.2184 39.5429 9.4478 38.7724 8.87482C38.1272 8.39075 37.193 7.88692 36.4129 8.35123C35.6328 8.81555 35.6617 9.8232 35.6906 10.6234C35.7195 11.6706 35.8447 12.7177 35.8928 13.7649C35.9121 14.1107 35.9891 14.5651 35.9025 14.9109C35.9025 14.9208 35.9025 14.9306 35.8928 14.9405C35.8639 14.9603 35.8158 14.9998 35.7291 15.1085C35.5269 15.3456 35.4017 15.7605 35.2861 16.047C34.5156 17.924 34.3904 20.0677 34.9201 22.0336C35.2764 23.3673 35.9313 24.6417 36.7981 25.7185C35.2379 26.8151 34.1689 28.2673 33.1384 29.8479C33.0228 28.0104 33.0517 26.1334 32.3102 24.4244C31.7419 23.1006 30.8848 21.9151 30.1143 20.7197C29.2476 19.3762 28.3712 18.0425 27.5237 16.699C27.1288 16.0667 26.9458 15.5333 26.9651 14.7726C26.9843 14.0317 27.0903 13.3204 26.9843 12.5794C26.8206 11.394 25.8094 10.248 25.925 9.05264C26.0502 7.79801 26.9843 6.65205 26.2139 5.39742C25.9346 4.94298 25.453 4.65649 24.9619 4.59722C24.8848 3.84641 24.5863 3.13513 23.8543 2.82888C23.3535 2.62142 22.8335 2.69057 22.3905 2.93755C21.9763 2.45348 21.4081 2.17686 20.7628 2.53251C20.1561 2.86839 19.9828 3.65871 19.9346 4.45891C19.4338 4.38976 18.933 4.6071 18.673 5.28875C18.2685 6.30628 19.2797 7.90668 19.819 8.697C20.8014 10.1196 20.9458 11.8583 21.2444 13.5476C21.5718 15.4246 21.8222 17.3214 21.8511 19.2379C21.8704 21.1149 21.6681 22.982 21.5044 24.8393C21.3696 26.3903 21.2636 27.961 21.0807 29.512C20.8495 31.4483 20.551 33.7205 19.559 35.3999C19.01 36.3483 17.8832 37.1189 16.9683 37.4646C16.1112 37.7906 15.1866 38.1068 14.9651 39.065C14.9555 39.065 14.9555 39.065 14.9458 39.065C12.2203 39.6874 9.5526 40.7543 7.21232 42.3152C4.75647 43.9551 2.64732 46.1779 1.49163 48.9638C0.788581 50.6531 0.441873 52.5005 0.201103 54.3182C0.00848711 55.7309 -0.0974516 57.1633 0.124057 58.576C0.345565 59.9986 1.15455 61.6286 2.76289 61.6286C3.83191 61.6286 4.82388 60.9174 4.99724 59.8109C5.1417 58.8823 5.07428 57.9141 5.09355 56.9756C5.12244 55.6914 5.21875 54.3972 5.57509 53.1525C5.92179 51.9374 6.55743 50.7914 7.59755 50.0801C8.9266 49.1712 10.6216 48.8353 12.1914 48.7662C14.2524 48.6773 16.3134 48.9638 18.3166 49.4281C19.3856 49.6751 20.445 49.9714 21.4852 50.3172C22.3038 50.5839 23.1031 50.9297 23.9506 51.1075C27.3599 51.8089 30.9811 51.0878 34.3615 50.5247C37.9057 49.9319 41.3727 49.3194 44.9747 49.6158C48.6729 49.922 52.3615 50.337 56.0404 50.8013C56.9746 50.9198 57.9088 51.1273 58.843 51.1767C60.8269 51.2853 62.4064 50.4357 63.2539 48.5686C65.1608 44.3404 63.1094 39.8652 60.5091 36.4372ZM51.774 11.5718C51.7547 11.552 51.7355 11.5323 51.7162 11.5026C51.7547 11.5224 51.774 11.5421 51.774 11.5718Z" fill="#212121"/>
</svg>
